<svg xmlns="http://www.w3.org/2000/svg" viewBox="0 -0.5 103 80" shape-rendering="crispEdges">
    <metadata>Made with Pixels to Svg https://codepen.io/shshaw/pen/XbxvNj</metadata>
    <path stroke="#ffffff" d="M94 0h3M92 1h2M97 1h2M90 2h2M99 2h2M88 3h2M101 3h1M86 4h2M101 4h2M84 5h2M99 5h2M102 5h1M82 6h2M97 6h2M102 6h1M80 7h2M95 7h2M102 7h1M78 8h2M94 8h1M102 8h1M77 9h1M91 9h2M102 9h1M75 10h3M89 10h1M102 10h1M73 11h2M78 11h2M87 11h2M102 11h1M71 12h2M80 12h2M85 12h2M101 12h1M69 13h2M83 13h2M99 13h2M68 14h1M82 14h2M97 14h2M65 15h2M80 15h2M83 15h1M95 15h2M63 16h2M78 16h2M83 16h1M93 16h2M61 17h2M76 17h2M83 17h1M91 17h1M59 18h2M75 18h1M83 18h1M90 18h1M58 19h1M72 19h2M83 19h1M90 19h1M56 20h3M70 20h2M83 20h1M90 20h1M54 21h2M59 21h2M68 21h2M83 21h1M90 21h1M52 22h2M61 22h2M66 22h2M82 22h2M90 22h1M50 23h2M63 23h3M80 23h2M83 23h1M90 23h1M48 24h2M63 24h2M78 24h2M83 24h1M90 24h1M46 25h2M61 25h2M64 25h1M76 25h2M83 25h1M90 25h1M44 26h2M59 26h2M64 26h1M74 26h3M83 26h1M90 26h1M42 27h2M57 27h2M64 27h1M72 27h2M76 27h1M83 27h1M90 27h1M40 28h2M55 28h2M64 28h1M71 28h3M76 28h1M83 28h1M94 28h3M39 29h1M53 29h2M64 29h1M71 29h1M74 29h3M83 29h1M90 29h1M92 29h2M97 29h2M37 30h3M51 30h2M71 30h1M76 30h1M83 30h1M90 30h2M99 30h2M35 31h2M40 31h2M49 31h2M64 31h1M71 31h1M76 31h2M83 31h1M90 31h1M101 31h1M33 32h2M42 32h2M48 32h1M64 32h1M71 32h1M74 32h2M77 32h1M83 32h1M90 32h1M101 32h2M31 33h2M44 33h3M64 33h1M71 33h3M83 33h1M90 33h1M99 33h2M102 33h1M7 34h2M29 34h2M44 34h2M64 34h1M71 34h1M77 34h1M83 34h1M90 34h1M97 34h2M102 34h1M4 35h2M9 35h2M27 35h2M42 35h2M45 35h1M57 35h1M77 35h1M83 35h1M90 35h1M95 35h2M102 35h1M2 36h2M11 36h2M25 36h2M40 36h2M45 36h1M55 36h3M64 36h1M77 36h1M83 36h1M90 36h1M93 36h2M102 36h1M1 37h1M13 37h1M23 37h2M38 37h2M45 37h1M53 37h2M57 37h1M64 37h1M77 37h1M83 37h1M90 37h3M102 37h1M0 38h2M13 38h2M21 38h2M36 38h1M45 38h1M52 38h1M57 38h1M64 38h1M77 38h1M83 38h1M90 38h1M102 38h1M0 39h1M2 39h2M11 39h2M14 39h1M20 39h1M34 39h2M45 39h1M52 39h1M57 39h1M64 39h1M76 39h4M83 39h1M0 40h1M4 40h2M9 40h2M14 40h1M18 40h3M32 40h2M45 40h1M57 40h1M64 40h1M74 40h2M80 40h2M83 40h1M101 40h1M0 41h1M6 41h3M14 41h1M16 41h2M21 41h2M30 41h2M45 41h1M52 41h1M56 41h2M64 41h1M72 41h2M83 41h1M99 41h1M0 42h1M7 42h1M15 42h1M23 42h2M28 42h2M44 42h2M52 42h1M55 42h1M64 42h1M71 42h1M82 42h2M97 42h2M0 43h1M7 43h1M13 43h1M25 43h3M42 43h2M45 43h1M52 43h2M64 43h1M71 43h1M80 43h2M83 43h1M95 43h2M0 44h1M7 44h1M12 44h2M25 44h2M40 44h2M45 44h1M52 44h1M64 44h1M71 44h1M78 44h2M83 44h1M93 44h2M0 45h1M7 45h1M12 45h1M14 45h2M23 45h2M26 45h1M38 45h2M64 45h1M71 45h1M76 45h2M83 45h1M91 45h2M0 46h1M7 46h1M12 46h1M16 46h1M21 46h2M26 46h1M36 46h2M45 46h1M63 46h2M71 46h1M74 46h2M83 46h1M89 46h2M0 47h1M7 47h1M12 47h1M18 47h3M26 47h1M34 47h2M45 47h1M61 47h2M64 47h1M71 47h3M83 47h1M87 47h2M0 48h1M7 48h1M12 48h1M19 48h1M26 48h1M33 48h1M44 48h2M59 48h2M64 48h1M71 48h1M83 48h1M85 48h2M0 49h1M7 49h1M12 49h1M19 49h1M26 49h1M33 49h1M42 49h2M45 49h1M57 49h2M64 49h1M83 49h2M0 50h1M7 50h1M12 50h1M19 50h1M26 50h1M33 50h1M40 50h2M45 50h1M55 50h3M64 50h1M82 50h1M0 51h1M7 51h1M12 51h1M19 51h1M26 51h1M33 51h1M38 51h2M45 51h1M53 51h2M57 51h1M64 51h1M80 51h2M0 52h1M7 52h1M12 52h1M19 52h1M26 52h1M33 52h1M36 52h2M45 52h1M52 52h1M57 52h1M64 52h1M78 52h2M0 53h1M12 53h1M19 53h1M26 53h1M33 53h2M45 53h1M52 53h1M57 53h1M64 53h1M76 53h2M7 54h1M12 54h1M19 54h1M33 54h1M52 54h1M57 54h1M64 54h1M74 54h2M0 55h1M7 55h2M12 55h1M19 55h1M26 55h1M45 55h1M52 55h1M57 55h1M64 55h1M72 55h2M0 56h1M8 56h2M12 56h1M19 56h1M26 56h1M45 56h1M52 56h1M64 56h1M70 56h1M0 57h1M10 57h3M19 57h1M26 57h1M45 57h1M52 57h1M59 57h1M64 57h1M68 57h2M0 58h1M12 58h1M19 58h1M26 58h1M45 58h1M52 58h1M61 58h1M64 58h1M66 58h2M0 59h1M19 59h1M26 59h1M38 59h1M45 59h1M52 59h1M63 59h3M1 60h1M19 60h1M26 60h1M36 60h3M45 60h1M52 60h1M2 61h2M19 61h1M26 61h1M34 61h2M38 61h1M45 61h1M52 61h1M4 62h2M19 62h1M26 62h1M32 62h2M38 62h1M45 62h1M52 62h1M6 63h2M19 63h1M26 63h1M30 63h2M38 63h1M45 63h1M52 63h1M8 64h2M19 64h1M26 64h1M28 64h2M38 64h1M45 64h1M52 64h1M10 65h2M19 65h1M26 65h2M38 65h1M45 65h1M52 65h1M12 66h2M19 66h1M24 66h2M36 66h2M45 66h1M51 66h1M14 67h2M22 67h2M34 67h2M45 67h1M49 67h2M16 68h2M19 68h2M32 68h2M45 68h1M47 68h2M18 69h2M21 69h2M30 69h2M45 69h2M19 70h1M24 70h1M28 70h2M44 70h1M19 71h1M25 71h3M42 71h2M19 72h1M26 72h1M40 72h2M19 73h1M26 73h1M38 73h2M19 74h1M26 74h1M36 74h2M19 75h1M26 75h1M34 75h2M20 76h1M26 76h1M32 76h2M21 77h2M26 77h1M30 77h2M23 78h2M26 78h1M28 78h2M25 79h3" />
    <path stroke="#660066" d="M94 1h3M93 2h6M90 3h7M98 3h3M88 4h13M86 5h13M84 6h13M82 7h13M80 8h6M87 8h6M78 9h7M86 9h5M78 10h11M75 11h3M80 11h7M73 12h7M82 12h3M71 13h11M69 14h13M67 15h13M65 16h12M63 17h13M61 18h13M59 19h9M69 19h2M59 20h5M65 20h5M56 21h3M61 21h7M54 22h7M63 22h3M52 23h11M50 24h7M58 24h5M48 25h13M46 26h13M44 27h13M42 28h13M40 29h13M72 29h2M94 29h3M40 30h11M72 30h4M92 30h7M37 31h3M42 31h7M72 31h4M91 31h10M35 32h7M44 32h3M72 32h2M91 32h10M33 33h7M41 33h3M91 33h8M31 34h13M91 34h6M29 35h5M35 35h3M39 35h2M91 35h4M27 36h13M91 36h2M25 37h13M23 38h4M28 38h3M32 38h4M21 39h13M21 40h11M53 40h1M76 40h4M23 41h2M26 41h4M53 41h3M74 41h8M25 42h3M53 42h2M72 42h10M72 43h8M72 44h5M72 45h4M38 46h2M72 46h2M36 47h6M34 48h10M34 49h3M38 49h4M34 50h6M34 51h4M34 52h2M32 63h2M30 64h6M28 65h10M26 66h3M30 66h6M24 67h10M22 68h10M23 69h7M25 70h3" />
    <path stroke="#670066" d="M92 2h1M97 3h1M86 8h1M68 19h1M71 19h1M40 33h1M34 35h1M41 35h1M27 38h1M31 38h1M77 44h1M37 49h1" />
    <path stroke="#9933cc" d="M101 5h1M99 6h3M97 7h5M95 8h7M93 9h9M91 10h1M93 10h9M89 11h13M87 12h8M96 12h5M85 13h14M84 14h13M82 15h1M84 15h11M80 16h3M84 16h9M78 17h5M84 17h7M76 18h7M85 18h5M74 19h9M84 19h6M72 20h11M84 20h6M70 21h2M73 21h10M84 21h6M68 22h6M76 22h6M84 22h6M66 23h7M74 23h6M84 23h6M65 24h13M84 24h6M63 25h1M65 25h11M84 25h3M88 25h2M61 26h3M65 26h9M84 26h6M59 27h5M65 27h7M84 27h6M57 28h7M65 28h6M84 28h3M88 28h2M55 29h9M65 29h6M84 29h6M53 30h11M65 30h6M84 30h6M51 31h6M58 31h6M65 31h6M84 31h6M49 32h15M65 32h6M76 32h1M84 32h6M47 33h14M62 33h2M65 33h6M74 33h3M84 33h6M101 33h1M46 34h6M53 34h11M65 34h6M72 34h5M84 34h6M99 34h3M44 35h1M46 35h11M58 35h6M65 35h12M84 35h6M97 35h5M42 36h3M46 36h9M58 36h6M65 36h12M84 36h6M95 36h7M40 37h2M43 37h2M47 37h6M58 37h6M65 37h12M84 37h6M93 37h9M38 38h3M42 38h3M46 38h6M58 38h6M66 38h11M84 38h6M91 38h11M36 39h3M40 39h5M46 39h6M58 39h6M65 39h3M69 39h7M84 39h18M34 40h3M38 40h7M46 40h6M58 40h6M65 40h9M84 40h3M88 40h13M32 41h13M46 41h6M58 41h6M65 41h7M84 41h15M30 42h14M46 42h6M57 42h7M65 42h6M84 42h13M28 43h13M46 43h6M55 43h4M60 43h1M62 43h2M65 43h5M82 43h1M84 43h11M27 44h13M46 44h6M53 44h11M65 44h6M80 44h3M84 44h2M87 44h6M27 45h11M46 45h18M65 45h6M78 45h5M84 45h7M27 46h9M46 46h8M55 46h1M57 46h6M65 46h6M76 46h7M84 46h5M27 47h2M30 47h4M46 47h15M65 47h6M74 47h9M85 47h2M27 48h4M32 48h1M46 48h13M65 48h6M72 48h11M84 48h1M27 49h6M44 49h1M46 49h11M65 49h18M27 50h2M30 50h3M42 50h3M46 50h9M65 50h17M27 51h6M40 51h5M46 51h7M65 51h15M27 52h6M38 52h7M46 52h6M65 52h8M74 52h4M27 53h6M36 53h9M46 53h6M65 53h11M27 54h6M34 54h5M40 54h5M46 54h6M65 54h9M27 55h18M46 55h3M50 55h2M65 55h7M27 56h9M37 56h8M46 56h6M65 56h5M27 57h18M46 57h6M65 57h3M27 58h14M42 58h3M46 58h6M65 58h1M27 59h11M39 59h6M46 59h6M27 60h9M39 60h6M46 60h6M27 61h7M39 61h6M46 61h6M27 62h5M39 62h6M46 62h3M50 62h2M27 63h3M39 63h6M46 63h6M27 64h1M39 64h6M46 64h6M39 65h6M46 65h6M38 66h2M41 66h2M44 66h1M46 66h5M36 67h9M46 67h3M34 68h1M36 68h9M46 68h1M32 69h13M30 70h14M28 71h14M27 72h2M30 72h10M27 73h8M36 73h2M27 74h9M27 75h7M28 76h4M27 77h3M27 78h1" />
    <path stroke="#fffffe" d="M93 8h1M92 17h1M64 35h1M102 39h1M14 42h1M45 45h1M35 53h1M45 54h1M60 57h1M62 58h1" />
    <path stroke="#660166" d="M85 9h1M64 20h1M57 24h1M38 35h1M29 66h1" />
    <path stroke="#fffeff" d="M90 10h1M90 28h1M37 38h1M52 40h1M82 41h1M0 54h1M26 54h1M58 56h1M71 56h1" />
    <path stroke="#9932cc" d="M92 10h1M84 18h1M74 22h2M87 28h1M46 37h1M68 39h1M59 43h1M54 46h1M29 47h1M29 50h1M39 54h1M49 55h1M29 72h1M27 76h1" />
    <path stroke="#9833cc" d="M95 12h1M72 21h1M73 23h1M87 25h1M61 33h1M65 38h1M39 39h1M37 40h1M41 43h1M70 43h1M86 44h1M56 46h1M84 47h1M31 48h1M73 52h1M36 56h1M41 58h1M40 66h1M43 66h1M35 68h1" />
    <path stroke="#feffff" d="M82 13h1M67 14h1M74 18h1M64 30h1M47 32h1M77 33h1M6 34h1M100 41h1M56 42h1M54 43h1M17 46h1M7 53h1M19 67h1M21 68h1M23 70h1" />
    <path stroke="#660067" d="M77 16h1M25 41h1" />
    <path stroke="#660099" d="M82 23h1M80 24h3M78 25h5M77 26h6M77 27h6M77 28h6M77 29h6M77 30h6M78 31h3M78 32h5M79 33h4M78 34h1M80 34h3M78 35h3M82 35h1M78 36h5M55 37h2M78 37h5M53 38h4M78 38h5M54 39h2M80 39h3M56 40h1M44 43h1M42 44h1M44 44h1M40 45h5M42 46h3M44 47h1M63 47h1M61 48h3M59 49h3M63 49h1M58 50h6M58 51h6M58 52h1M60 52h4M58 53h6M58 54h6M58 55h6M59 56h5M61 57h3M63 58h1M36 61h2M34 62h4M36 63h2M20 69h1M20 70h3M20 71h5M20 72h6M20 73h1M22 73h4M20 74h6M20 75h6M21 76h5M23 77h3M25 78h1" />
    <path stroke="#9933cd" d="M57 31h1M52 34h1M42 37h1M41 38h1M87 40h1M61 43h1M49 62h1" />
    <path stroke="#660199" d="M81 31h2M78 33h1M79 34h1M21 73h1" />
    <path stroke="#006600" d="M6 35h3M4 36h3M8 36h3M2 37h6M9 37h4M2 38h11M4 39h2M7 39h4M7 40h2M18 41h3M16 42h7M14 43h11M14 44h11M16 45h7M18 46h1M20 46h1M11 54h1M9 55h3M10 56h2" />
    <path stroke="#670199" d="M81 35h1" />
    <path stroke="#006601" d="M7 36h1M19 46h1" />
    <path stroke="#016600" d="M8 37h1" />
    <path stroke="#009966" d="M1 39h1M1 40h3M1 41h5M1 42h6M1 43h6M1 44h1M3 44h4M1 45h6M13 45h1M1 46h6M13 46h1M15 46h1M1 47h6M13 47h5M1 48h6M13 48h6M1 49h6M13 49h6M1 50h6M13 50h6M1 51h6M13 51h6M1 52h6M14 52h5M1 53h6M13 53h6M1 54h6M13 54h6M1 55h6M13 55h6M1 56h7M13 56h6M1 57h9M13 57h6M1 58h4M6 58h6M13 58h3M17 58h2M1 59h1M3 59h13M17 59h2M2 60h5M8 60h11M4 61h3M8 61h11M6 62h13M8 63h11M11 64h8M12 65h7M14 66h5M16 67h3M18 68h1" />
    <path stroke="#006700" d="M6 39h1M6 40h1" />
    <path stroke="#33cc33" d="M13 39h1M11 40h3M9 41h5M8 42h6M8 43h3M12 43h1M8 44h4M8 45h4M25 45h1M8 46h4M23 46h3M8 47h4M21 47h5M8 48h3M20 48h6M8 49h4M20 49h6M8 50h4M20 50h2M23 50h3M8 51h4M20 51h6M8 52h4M20 52h6M8 53h3M20 53h6M8 54h1M20 54h6M20 55h1M22 55h4M20 56h6M20 57h6M20 58h6M20 59h6M20 60h6M20 61h6M20 62h6M20 63h6M20 64h6M20 65h6M20 66h4M20 67h2" />
    <path stroke="#ffccff" d="M53 39h1M54 40h2M40 46h2M42 47h2M34 63h2M36 64h2" />
    <path stroke="#670099" d="M56 39h1M43 44h1M62 49h1M59 52h1" />
    <path stroke="#660098" d="M82 40h1" />
    <path stroke="#32cc33" d="M11 43h1M11 48h1M22 50h1" />
    <path stroke="#009866" d="M2 44h1M16 59h1M10 64h1" />
    <path stroke="#019966" d="M14 46h1M13 52h1M16 58h1M7 60h1M7 61h1" />
    <path stroke="#ccffcc" d="M11 53h1M9 54h2" />
    <path stroke="#33cc32" d="M21 55h1" />
    <path stroke="#009967" d="M5 58h1M2 59h1" />
    <path stroke="#9932cd" d="M35 73h1" />
</svg>